<svg width="143" height="130" viewBox="0 0 143 130" fill="none" xmlns="http://www.w3.org/2000/svg">
<g id="HCMCUT 1" clip-path="url(#clip0_9513_4985)">
<g id="svgg">
<path id="path0" fill-rule="evenodd" clip-rule="evenodd" d="M53.4913 65.0793C54.0277 65.0992 54.874 65.0992 55.3721 65.0793C55.8698 65.0593 55.431 65.0429 54.3966 65.0432C53.3621 65.0432 52.9549 65.0596 53.4913 65.0793ZM35.9756 92.9123C35.9238 93.024 23.8559 99.2364 23.6869 99.2387C23.606 99.2396 23.54 99.2792 23.54 99.3265C23.54 99.4475 22.88 99.7436 22.7906 99.6625C22.7501 99.6258 22.7171 99.6503 22.7171 99.7172C22.7171 99.8636 22.0724 100.183 21.9677 100.089C21.9272 100.052 21.8942 100.077 21.8942 100.144C21.8942 100.29 21.2495 100.61 21.1451 100.515C21.1043 100.478 21.0713 100.498 21.0713 100.56C21.0713 100.683 18.1621 102.221 17.9267 102.223C17.8461 102.224 17.7797 102.263 17.7797 102.31C17.7797 102.431 17.1201 102.727 17.0307 102.646C16.9902 102.609 16.9572 102.63 16.9572 102.694C16.9572 102.805 15.8216 103.437 15.5219 103.493C15.4389 103.508 15.3178 103.574 15.2528 103.64C15.102 103.793 1.42134 110.85 1.26407 110.856C1.19946 110.859 1.05462 110.947 0.941735 111.053C0.719505 111.261 0.87535 111.385 2.15938 112.022C2.42137 112.152 2.81329 112.354 3.0302 112.471C3.2471 112.589 3.83285 112.9 4.33127 113.164C4.83005 113.428 5.37533 113.717 5.54324 113.806C5.71116 113.895 6.24543 114.177 6.73036 114.433C7.21529 114.689 8.00872 115.112 8.49365 115.372C8.97823 115.633 9.45464 115.889 9.55155 115.941C9.64847 115.993 10.389 116.379 11.197 116.799C12.0053 117.218 12.8119 117.655 12.9897 117.768C13.1676 117.881 13.3131 117.939 13.3131 117.897C13.3131 117.854 13.4054 117.891 13.5187 117.979C13.764 118.17 15.3796 119.048 16.8983 119.816C17.0275 119.882 17.9004 120.349 18.838 120.854C19.7752 121.36 20.7802 121.889 21.0713 122.03C21.3624 122.171 21.8118 122.409 22.0706 122.557C22.5673 122.843 22.6031 122.862 25.1478 124.186C26.0413 124.651 27.0477 125.191 27.3839 125.385C27.7204 125.579 28.0222 125.738 28.0545 125.738C28.0872 125.738 28.7269 126.074 29.4763 126.484C30.2253 126.894 30.8679 127.229 30.9034 127.229C30.9392 127.229 31.4263 127.486 31.9854 127.798C32.5449 128.112 33.2407 128.488 33.5314 128.636C33.8225 128.784 34.5137 129.142 35.0672 129.432C35.8137 129.823 36.1066 129.928 36.2 129.837C36.485 129.561 39.8877 127.861 40.0145 127.932C40.0933 127.976 40.1192 127.962 40.0759 127.899C39.9768 127.753 44.5318 125.378 44.7143 125.48C44.796 125.526 44.8215 125.512 44.7764 125.446C44.677 125.3 51.2353 121.863 51.4178 121.965C51.4948 122.009 51.5214 121.995 51.4792 121.933C51.3801 121.788 64.2801 115.042 64.4622 115.144C64.5443 115.19 64.5698 115.176 64.5247 115.11C64.4409 114.986 70.9697 111.519 71.1235 111.605C71.1746 111.634 71.2232 111.573 71.2317 111.469C71.2481 111.276 36.0509 92.7498 35.9756 92.9123Z" fill="#04249C"/>
<path id="path1" fill-rule="evenodd" clip-rule="evenodd" d="M71.6466 18.7258L71.6764 37.3334L72.264 37.6488C72.5874 37.8219 73.0237 38.0533 73.2338 38.1623C73.444 38.2714 73.788 38.45 73.9978 38.5591C74.3769 38.7561 77.9383 40.6219 80.0811 41.7463C80.6952 42.0687 81.4095 42.4407 81.6679 42.5733C81.9267 42.7056 82.6143 43.066 83.1962 43.3736C85.0674 44.3638 87.8879 45.8412 88.2507 46.0221C88.4449 46.1186 88.9738 46.3934 89.4264 46.6332C90.4783 47.1902 92.4784 48.237 93.0116 48.5099C93.2377 48.6255 94.5604 49.3196 95.9503 50.052C97.3404 50.7844 99.218 51.7688 100.123 52.24C101.029 52.7111 102.271 53.3598 102.886 53.6816C103.964 54.2464 104.332 54.4382 105.149 54.8623C105.359 54.9711 105.816 55.2137 106.164 55.401C106.514 55.589 106.843 55.701 106.898 55.6511C106.953 55.6012 107.012 47.235 107.029 37.0595C107.045 26.8841 107.042 18.5745 107.02 18.5935C106.999 18.6128 106.55 18.4007 106.021 18.1227C105.493 17.8447 104.214 17.1727 103.179 16.6292C102.145 16.086 101.272 15.6107 101.24 15.5727C101.208 15.5351 101.128 15.4958 101.064 15.4855C100.999 15.4755 99.6501 14.7875 98.0661 13.9566C96.4824 13.1261 93.996 11.8224 92.5416 11.0601C91.0868 10.2974 89.8702 9.64285 89.8379 9.6052C89.8056 9.56755 89.7261 9.52861 89.6614 9.51864C89.5968 9.50834 88.9355 9.17914 88.1921 8.78686C87.4484 8.39458 85.6237 7.43786 84.1366 6.66102C82.6495 5.88387 80.7722 4.90269 79.965 4.48081C79.1577 4.0586 78.4576 3.65699 78.4094 3.58845C78.3611 3.51958 78.3206 3.50446 78.3195 3.5553C78.3188 3.60615 78.1989 3.57718 78.0533 3.49094C77.8151 3.34999 73.9843 1.33872 72.2931 0.466633L71.6168 0.117798L71.6466 18.7258ZM35.0007 56.2844C34.4188 56.5866 32.6733 57.5002 31.1216 58.3143C29.5699 59.1288 28.2475 59.8033 28.1829 59.8136C28.1183 59.8236 28.0388 59.8638 28.0061 59.9027C27.9734 59.9414 27.3121 60.305 26.5368 60.7108C25.7611 61.1166 24.0422 62.0151 22.717 62.7079C21.3914 63.4004 19.5003 64.3896 18.5145 64.9061C17.5286 65.4223 16.721 65.8107 16.7199 65.7689C16.7192 65.7271 16.6784 65.7493 16.6298 65.8188C16.5811 65.8883 15.1934 66.6477 13.5459 67.507C11.8983 68.3662 10.1027 69.3078 9.55534 69.5996C9.00793 69.8915 8.50525 70.1387 8.43851 70.1493C8.37177 70.1596 8.29047 70.1988 8.25817 70.2362C8.19001 70.3153 7.77785 70.5354 3.76458 72.6362C2.13087 73.4915 0.72791 74.1931 0.64697 74.1953C0.52982 74.1985 0.5 77.9691 0.5 92.6816V111.164L0.764475 111.012C0.910025 110.928 8.95042 106.764 18.632 101.759L36.235 92.6591V74.1943C36.235 64.0386 36.1952 55.7306 36.147 55.7322C36.0983 55.7335 35.5829 55.9822 35.0007 56.2844ZM80.5514 83.2663C77.9024 83.9302 76.5105 86.8213 77.4952 89.6152C78.6589 92.9178 83.6321 93.5663 85.4174 90.6485C86.0635 89.5926 86.0468 89.5218 85.0834 89.2261C84.023 88.9004 83.8874 88.9062 83.805 89.2792C83.5167 90.5857 81.6232 91.2277 80.3892 90.437C79.1332 89.6319 79.0498 86.2176 80.2632 85.2615C81.4063 84.3604 83.1401 84.7115 83.7106 85.9601C83.8778 86.3257 83.7702 86.3276 85.3344 85.9312L85.9446 85.7764L85.6996 85.2425C84.9279 83.5585 82.7386 82.7183 80.5514 83.2663ZM47.4022 84.047L47.4019 84.8731L48.8716 84.8402L50.3409 84.8074V88.5432V92.2787H51.3403H52.3392V88.5432V84.8074L53.8089 84.8402L55.2786 84.8731L55.2783 84.047V83.2213H51.3403H47.4022V84.047ZM56.5417 83.2788C56.4934 83.3255 56.4537 85.3693 56.4537 87.8211V92.2787H57.5116H58.5695V90.6436V89.0082L60.2206 88.9368C62.0637 88.857 62.603 88.7051 63.2849 88.0724C64.6662 86.792 64.2445 84.3077 62.5185 83.5585C61.9232 83.3001 56.7714 83.0591 56.5417 83.2788ZM67.6209 87.7458V92.2787H68.6788H69.7367V90.3608V88.4425H71.6764H73.6158V90.3608V92.2787H74.6151H75.6141V87.75V83.2213H74.6151H73.6158V84.9796V86.7376H71.6793H69.7428L69.7104 85.0063L69.6781 83.2747L68.6493 83.2438L67.6209 83.2129V87.7458ZM87.4867 87.75V92.2787H88.4101H89.3334L89.4165 90.7337C89.4619 89.8842 89.4648 89.1386 89.4229 89.0768C89.3806 89.015 89.3845 88.2896 89.4314 87.4649L89.5166 85.9656L90.3824 89.0816C90.8589 90.7955 91.2483 92.2179 91.2483 92.2424C91.2483 92.2668 91.7094 92.2733 92.2732 92.2562L93.2981 92.2253L94.2086 88.9754L95.1196 85.7255L95.1235 89.0021L95.1274 92.2787H96.1278H97.1285L97.0976 87.7767L97.0671 83.2747L95.5232 83.2451L93.9797 83.2155L93.92 83.5115C93.8874 83.674 93.6957 84.3588 93.494 85.0327C93.2924 85.7069 92.9647 86.8692 92.7659 87.6158C92.3176 89.3024 92.3048 89.3078 91.9274 87.9827C91.7577 87.386 91.4847 86.4422 91.3214 85.8851C91.1578 85.3284 90.9355 84.5612 90.8276 84.1802C90.5461 83.19 90.6079 83.2213 88.9419 83.2213H87.4867V87.75ZM60.2298 84.9155C61.4524 85.0127 61.8607 85.2753 61.8919 85.9846C61.9327 86.9156 61.4514 87.22 59.7743 87.3233L58.5695 87.3973V86.1085V84.8196L58.8929 84.8274C59.0707 84.8316 59.6721 84.8711 60.2298 84.9155ZM63.8593 91.3728V92.2787H64.8583H65.8576V91.3728V90.4673H64.8583H63.8593V91.3728ZM105.589 93.4736C104.91 93.8292 104.197 94.2073 104.002 94.3138C103.809 94.4203 103.485 94.5838 103.284 94.6771C103.082 94.7704 102.793 94.9523 102.64 95.0813C102.487 95.21 102.335 95.3079 102.301 95.2985C102.204 95.2721 101.589 95.5441 100.946 95.8974C100.623 96.0754 100.015 96.3956 99.5943 96.6096C99.174 96.8236 98.4072 97.2226 97.89 97.4961C97.3728 97.77 96.6851 98.1339 96.3617 98.3051C96.0387 98.4763 95.668 98.6749 95.5388 98.7467C95.4096 98.8181 95.2243 98.9108 95.1274 98.9526C95.0305 98.9941 94.6868 99.1769 94.3634 99.3587C94.04 99.5405 93.6435 99.7504 93.4819 99.8253C93.3201 99.9 92.9764 100.076 92.7176 100.215C92.1184 100.54 91.8809 100.662 90.6608 101.278C90.1109 101.556 89.4232 101.918 89.1325 102.084C88.8414 102.25 88.048 102.67 87.3692 103.016C85.979 103.725 84.7781 104.356 84.2541 104.652C84.0603 104.761 83.822 104.883 83.7251 104.924C83.6282 104.964 83.3421 105.114 83.0897 105.256C82.8369 105.399 82.3875 105.636 82.0904 105.784C81.3285 106.162 81.0293 106.318 80.4925 106.617C80.2341 106.761 79.758 107.005 79.4346 107.159C79.1112 107.314 78.3444 107.715 77.7302 108.05C77.1161 108.386 76.3752 108.779 76.0845 108.924C75.7934 109.07 75.0266 109.468 74.3801 109.808C73.7333 110.149 73.0723 110.495 72.9108 110.576C72.0801 110.994 71.6821 111.23 71.6473 111.325C71.626 111.382 72.9917 112.14 74.6819 113.008C76.3724 113.877 77.8268 114.652 77.9148 114.732C78.0025 114.811 78.1033 114.874 78.1385 114.871C78.3075 114.855 90.4474 121.123 90.556 121.282C90.5958 121.34 90.6487 121.378 90.6739 121.368C90.757 121.334 91.3658 121.615 91.3658 121.688C91.3658 121.727 91.4322 121.762 91.5128 121.764C91.7009 121.77 103.038 127.64 103.134 127.781C103.173 127.84 103.226 127.879 103.252 127.868C103.346 127.829 103.944 128.12 103.944 128.206C103.944 128.255 103.985 128.283 104.036 128.269C104.088 128.254 104.797 128.583 105.613 128.999L107.097 129.756L109.799 128.351C121.016 122.517 135.149 115.246 135.23 115.268C135.285 115.283 135.329 115.255 135.329 115.206C135.329 115.107 135.923 114.82 136.064 114.85C136.112 114.861 136.152 114.829 136.152 114.78C136.152 114.681 136.746 114.394 136.887 114.424C136.935 114.434 136.975 114.402 136.975 114.353C136.975 114.255 137.569 113.968 137.71 113.998C137.758 114.008 137.798 113.976 137.798 113.927C137.798 113.848 138.392 113.549 138.478 113.584C138.497 113.592 138.58 113.536 138.664 113.461C138.747 113.385 139.565 112.94 140.481 112.471C141.397 112.002 142.146 111.588 142.147 111.551C142.147 111.514 134.358 107.372 124.838 102.347C115.318 97.3227 107.37 93.1251 107.176 93.0192L106.823 92.8268L105.589 93.4736Z" fill="#0A69A9"/>
<path id="path2" fill-rule="evenodd" clip-rule="evenodd" d="M70.9118 0.316936C70.3008 0.653864 65.2335 3.30874 64.4465 3.70424C64.1557 3.85034 63.4944 4.19627 62.9771 4.4727C62.4599 4.74945 61.1642 5.432 60.0974 5.98968C59.0306 6.54769 57.1264 7.54367 55.8654 8.20305C54.6048 8.86274 53.3882 9.49831 53.1618 9.61576C52.9356 9.73322 51.6924 10.3833 50.3995 11.0603C46.3649 13.1727 41.4581 15.7387 38.6738 17.1917L35.9996 18.5873V37.0987C35.9996 49.3308 36.0394 55.6327 36.1171 55.6761C36.1817 55.7125 37.0945 55.2896 38.1449 54.7361C41.0314 53.2162 48.5681 49.2719 52.6328 47.1541C53.7319 46.5813 55.7951 45.501 57.2173 44.7535C58.6398 44.0059 62.1837 42.1485 65.0933 40.626C68.0025 39.1032 70.6473 37.7156 70.9707 37.5422L71.5586 37.2268L71.588 18.699C71.6044 8.50876 71.5781 0.138335 71.5294 0.0981099C71.4808 0.0578845 71.2029 0.156356 70.9118 0.316936ZM106.941 55.8515C106.908 55.931 106.894 64.2824 106.911 74.4105L106.941 92.8254L124.611 102.156C134.33 107.288 142.318 111.444 142.361 111.393C142.405 111.341 142.414 102.992 142.382 92.8389L142.323 74.379L141.5 73.9401C140.241 73.2678 138.471 72.3326 138.209 72.2001C138.08 72.1347 137.471 71.8123 136.857 71.4837C134.635 70.2947 127.727 66.6248 127.214 66.3609C126.926 66.2126 125.472 65.4448 123.986 64.6551C122.499 63.8654 119.087 62.0533 116.404 60.6287C113.72 59.2037 111.234 57.8853 110.879 57.699C110.523 57.513 109.588 57.0171 108.8 56.5978C107.116 55.7009 107.021 55.6623 106.941 55.8515ZM47.4019 67.449V78.9731L54.9545 78.9338C64.2449 78.8852 64.6059 78.8266 66.5662 77.0426C70.1606 73.7718 68.889 67.9304 64.3403 66.8173C64.0744 66.7523 64.0933 66.7275 64.6496 66.4037C68.6586 64.072 68.2418 58.5897 63.9136 56.7236C62.3452 56.0475 62.0818 56.0266 54.3666 55.9731L47.4019 55.9252V67.449ZM74.4383 67.4509V78.9589H77.0831H79.7282L79.7339 75.4693L79.7395 71.9793L81.7219 70.1309L83.7042 68.2821L84.7301 69.8644C85.2942 70.7346 86.0834 71.95 86.4831 72.5656C86.8832 73.1809 87.9734 74.871 88.906 76.3214L90.6015 78.9586L93.9878 78.9589C96.6663 78.9589 97.3557 78.9312 97.2854 78.8257C97.2364 78.7526 96.7128 78.0212 96.121 77.2009C95.5296 76.3803 93.8121 73.9828 92.3044 71.8728C90.7967 69.763 89.065 67.3469 88.4566 66.5038L87.3504 64.9711L87.918 64.4259C88.2301 64.1263 89.3043 63.1139 90.305 62.1762C92.9892 59.661 95.3201 57.4731 96.1817 56.6602L96.9425 55.9426H93.4106H89.879L88.3007 57.503C87.4327 58.3612 86.6429 59.1442 86.546 59.2423C86.449 59.3408 84.8885 60.8768 83.0783 62.656L79.7868 65.8911L79.7562 60.9167L79.7257 55.9426H77.082H74.4383V67.4509ZM60.7438 60.1318C62.9317 61.0206 62.8589 63.8802 60.6263 64.7452C60.1418 64.9328 57.328 65.0837 54.0141 65.0995L52.5742 65.1066V62.488V59.8699L56.4238 59.9052C59.8184 59.9365 60.3292 59.9632 60.7438 60.1318ZM60.5049 69.1568C62.7457 69.5558 63.9051 71.4567 63.0311 73.2987C62.3261 74.7838 61.7421 74.9389 56.6589 74.9911L52.5742 75.0332V71.9729V68.9125L56.1888 68.9721C58.1768 69.0049 60.119 69.0879 60.5049 69.1568ZM36.1171 92.8425C36.1171 92.8721 44.0255 97.0346 53.6907 102.093C63.3563 107.151 71.2646 111.322 71.2646 111.361C71.2646 111.401 63.4227 115.538 53.8377 120.556C34.5725 130.642 36.0447 129.863 36.1207 129.931C36.1512 129.958 36.9958 129.547 37.9979 129.018C39.0001 128.488 40.058 127.935 40.3491 127.788C40.6398 127.642 41.3012 127.295 41.8184 127.019C42.3357 126.743 43.6314 126.06 44.6982 125.502C45.765 124.944 47.6695 123.948 48.9301 123.289C50.1908 122.629 51.4073 121.993 51.6338 121.876C52.5004 121.426 56.902 119.123 60.5088 117.233C62.5778 116.149 65.143 114.807 66.2098 114.251C69.8535 112.353 70.9707 111.759 71.0825 111.662C71.1439 111.609 71.2912 111.566 71.4098 111.566C71.9434 111.566 71.2444 111.099 68.7743 109.808C67.3316 109.054 65.1725 107.926 63.9765 107.301C60.7616 105.622 43.2459 96.4537 39.6437 94.5651C36.5964 92.9673 36.1171 92.733 36.1171 92.8425ZM33.0854 94.3462C30.6374 95.6177 29.5507 96.2217 30.5337 95.7648C31.4006 95.3619 36.0461 92.919 35.9407 92.9216C35.8761 92.9232 34.5913 93.5643 33.0854 94.3462ZM29.7403 96.0692C29.3008 96.2851 29.3274 96.3752 29.7694 96.168C29.9636 96.0772 30.1223 95.98 30.1223 95.952C30.1223 95.8835 30.1095 95.8874 29.7403 96.0692ZM28.9174 96.4952C28.4779 96.7115 28.5045 96.8016 28.9465 96.5944C29.1407 96.5033 29.2994 96.4061 29.2994 96.3784C29.2994 96.3099 29.2866 96.3138 28.9174 96.4952ZM28.0945 96.9216C27.655 97.1376 27.6816 97.2277 28.124 97.0204C28.3178 96.9297 28.4765 96.8325 28.4765 96.8045C28.4765 96.736 28.4637 96.7398 28.0945 96.9216ZM27.2716 97.3477C26.8321 97.5639 26.8587 97.6541 27.3011 97.4468C27.4949 97.3558 27.6536 97.2586 27.6536 97.2309C27.6536 97.1623 27.6408 97.1662 27.2716 97.3477ZM26.4487 97.7741C26.0092 97.99 26.0358 98.0801 26.4782 97.8729C26.672 97.7821 26.8307 97.6849 26.8307 97.657C26.8307 97.5884 26.8183 97.5923 26.4487 97.7741ZM25.6258 98.2002C25.1863 98.4164 25.2133 98.5065 25.6553 98.2993C25.8491 98.2082 26.0078 98.111 26.0078 98.0833C26.0078 98.0148 25.9954 98.0187 25.6258 98.2002ZM24.8029 98.6265C24.3634 98.8425 24.3904 98.9326 24.8324 98.7253C25.0262 98.6346 25.1849 98.5374 25.1849 98.5094C25.1849 98.4409 25.1725 98.4447 24.8029 98.6265ZM23.98 99.0526C23.5406 99.2689 23.5675 99.359 24.0095 99.1517C24.2037 99.0607 24.3624 98.9635 24.3624 98.9358C24.3624 98.8672 24.3496 98.8711 23.98 99.0526ZM23.1575 99.479C22.718 99.6949 22.7446 99.785 23.1866 99.5778C23.3808 99.4871 23.5395 99.3899 23.5395 99.3619C23.5395 99.2933 23.5267 99.2972 23.1575 99.479ZM22.3346 99.9051C21.8951 100.121 21.9218 100.211 22.3637 100.004C22.5579 99.9131 22.7166 99.8159 22.7166 99.7883C22.7166 99.7197 22.7038 99.7236 22.3346 99.9051ZM21.5117 100.331C21.0722 100.547 21.0989 100.637 21.5412 100.43C21.735 100.34 21.8937 100.242 21.8937 100.214C21.8937 100.146 21.8809 100.15 21.5117 100.331ZM19.5425 101.348C18.7346 101.765 18.0203 102.156 17.9557 102.218C17.8911 102.28 18.0235 102.236 18.2496 102.12C21.0914 100.665 21.2313 100.588 21.0414 100.591C21.0254 100.591 20.3509 100.932 19.5425 101.348ZM17.3973 102.462C16.9578 102.679 16.9848 102.769 17.4267 102.562C17.6206 102.47 17.7793 102.373 17.7793 102.346C17.7793 102.277 17.7668 102.281 17.3973 102.462ZM16.1633 103.102C15.759 103.31 15.4284 103.504 15.4284 103.534C15.4284 103.593 16.7061 102.963 16.8918 102.812C17.0987 102.644 16.9017 102.722 16.1633 103.102ZM11.5749 105.478C9.55249 106.525 7.85985 107.418 7.81334 107.463C7.65324 107.619 14.9985 103.865 15.2463 103.664C15.5069 103.453 15.0692 103.67 11.5749 105.478ZM7.2883 107.684C6.84881 107.9 6.87543 107.99 7.31741 107.783C7.51159 107.692 7.67028 107.595 7.67028 107.567C7.67028 107.498 7.6575 107.502 7.2883 107.684ZM6.46541 108.11C6.02592 108.326 6.05254 108.416 6.49452 108.209C6.6887 108.118 6.84739 108.021 6.84739 107.993C6.84739 107.924 6.83461 107.928 6.46541 108.11ZM5.64252 108.536C5.20303 108.752 5.22965 108.843 5.67198 108.635C5.86581 108.544 6.0245 108.447 6.0245 108.419C6.0245 108.351 6.01172 108.355 5.64252 108.536ZM4.81963 108.963C4.38014 109.179 4.40676 109.269 4.84909 109.061C5.04292 108.971 5.20161 108.873 5.20161 108.846C5.20161 108.777 5.18883 108.781 4.81963 108.963ZM3.99674 109.389C3.55725 109.605 3.58387 109.695 4.0262 109.488C4.22003 109.397 4.37872 109.299 4.37872 109.272C4.37872 109.203 4.36629 109.207 3.99674 109.389ZM3.17385 109.815C2.73436 110.031 2.76134 110.121 3.20331 109.914C3.39714 109.823 3.55583 109.726 3.55583 109.698C3.55583 109.629 3.5434 109.633 3.17385 109.815ZM2.35096 110.241C1.91147 110.457 1.93845 110.547 2.38042 110.34C2.57425 110.249 2.73294 110.152 2.73294 110.124C2.73294 110.056 2.72051 110.06 2.35096 110.241ZM1.52807 110.667C1.08858 110.884 1.11556 110.973 1.55753 110.766C1.75136 110.675 1.9104 110.578 1.9104 110.551C1.9104 110.482 1.89762 110.486 1.52807 110.667Z" fill="#042B94"/>
<path id="path3" fill-rule="evenodd" clip-rule="evenodd" d="M58.8354 87.3471C59.014 87.3715 59.2784 87.3709 59.4229 87.3455C59.5678 87.3204 59.4215 87.3001 59.0981 87.3011C58.775 87.3017 58.6565 87.3226 58.8354 87.3471Z" fill="#0B51B0"/>
<path id="path4" fill-rule="evenodd" clip-rule="evenodd" d="M71.7353 0.154469C71.7353 0.183753 71.894 0.281903 72.0882 0.372973C72.2821 0.463722 72.4407 0.514245 72.4407 0.484961C72.4407 0.455677 72.2821 0.357205 72.0882 0.266457C71.894 0.175386 71.7353 0.125185 71.7353 0.154469ZM73.969 1.32648C73.969 1.35576 74.1277 1.45423 74.3215 1.54498C74.5154 1.63605 74.674 1.68657 74.674 1.65697C74.674 1.62768 74.5154 1.52953 74.3215 1.43846C74.1277 1.34772 73.969 1.29719 73.969 1.32648ZM80.0814 4.52327C80.0814 4.55255 80.2401 4.65103 80.4343 4.74177C80.6281 4.83284 80.7868 4.88305 80.7868 4.85376C80.7868 4.82448 80.6281 4.72633 80.4343 4.63526C80.2401 4.54419 80.0814 4.49399 80.0814 4.52327ZM83.1376 6.12167C83.1376 6.15095 83.2963 6.2491 83.4905 6.34017C83.6843 6.43124 83.843 6.48144 83.843 6.45216C83.843 6.42287 83.6843 6.3244 83.4905 6.23365C83.2963 6.14258 83.1376 6.09238 83.1376 6.12167ZM93.7173 11.6625C93.7173 11.6918 93.876 11.7902 94.0698 11.8813C94.264 11.9721 94.4227 12.0226 94.4227 11.9933C94.4227 11.964 94.264 11.8655 94.0698 11.7745C93.876 11.6837 93.7173 11.6332 93.7173 11.6625ZM94.5402 12.0889C94.5402 12.1182 94.6989 12.2166 94.8927 12.3074C95.0865 12.3984 95.2452 12.4486 95.2452 12.4194C95.2452 12.3901 95.0865 12.2916 94.8927 12.2009C94.6989 12.1098 94.5402 12.0596 94.5402 12.0889ZM105.12 17.6297C105.12 17.659 105.278 17.7574 105.472 17.8485C105.666 17.9392 105.825 17.9898 105.825 17.9605C105.825 17.9312 105.666 17.8327 105.472 17.7417C105.278 17.6509 105.12 17.6004 105.12 17.6297ZM106.854 18.5526C106.972 18.6891 106.995 22.5092 106.972 37.2268C106.955 47.4032 106.981 55.7296 107.03 55.7296C107.247 55.7296 107.13 18.6823 106.912 18.5275C106.729 18.3975 106.723 18.4004 106.854 18.5526ZM35.148 56.1103C34.7085 56.3262 34.7355 56.4163 35.1774 56.2091C35.3713 56.118 35.53 56.0211 35.53 55.9931C35.53 55.9246 35.5175 55.9284 35.148 56.1103ZM34.3251 56.5363C33.886 56.7526 33.9126 56.8424 34.3546 56.6351C34.5487 56.5444 34.7074 56.4472 34.7074 56.4195C34.7074 56.351 34.6946 56.3548 34.3251 56.5363ZM23.7457 62.0775C23.3062 62.2934 23.3332 62.3835 23.7752 62.1763C23.969 62.0852 24.1277 61.9883 24.1277 61.9603C24.1277 61.8918 24.1153 61.8956 23.7457 62.0775ZM22.9228 62.5035C22.4834 62.7198 22.5103 62.8096 22.9523 62.6023C23.1461 62.5116 23.3048 62.4144 23.3048 62.3867C23.3048 62.3182 23.2924 62.322 22.9228 62.5035ZM14.5768 66.8723C14.1373 67.0886 14.1643 67.1787 14.6063 66.9715C14.8001 66.8804 14.9588 66.7832 14.9588 66.7555C14.9588 66.687 14.9464 66.6908 14.5768 66.8723ZM6.23075 71.2411C5.79126 71.4574 5.81824 71.5475 6.26021 71.3402C6.4544 71.2492 6.61308 71.152 6.61308 71.1243C6.61308 71.0558 6.6003 71.0596 6.23075 71.2411ZM3.17455 72.8395C2.73506 73.0558 2.76204 73.1459 3.20402 72.9386C3.39785 72.8476 3.55653 72.7504 3.55653 72.7227C3.55653 72.6542 3.54411 72.658 3.17455 72.8395ZM48.196 84.8985C48.6004 84.9194 49.2614 84.9194 49.6653 84.8985C50.0697 84.8779 49.7388 84.8608 48.9309 84.8608C48.1225 84.8608 47.792 84.8779 48.196 84.8985ZM53.0155 84.8985C53.4198 84.9194 54.0808 84.9194 54.4852 84.8985C54.8892 84.8779 54.5583 84.8608 53.7503 84.8608C52.9424 84.8608 52.6115 84.8779 53.0155 84.8985ZM58.7757 84.8949C58.9209 84.9203 59.1591 84.9203 59.3047 84.8949C59.4499 84.8695 59.3309 84.8486 59.0402 84.8486C58.7491 84.8486 58.6302 84.8695 58.7757 84.8949ZM89.4072 88.336C89.4072 88.7756 89.4282 88.9554 89.4534 88.7356C89.479 88.5159 89.479 88.1564 89.4534 87.9366C89.4282 87.7168 89.4072 87.8964 89.4072 88.336ZM89.4065 91.1598C89.4069 91.5701 89.4282 91.7249 89.4538 91.5038C89.479 91.2827 89.4786 90.9471 89.4527 90.7579C89.4268 90.5686 89.4058 90.7495 89.4065 91.1598ZM73.7336 112.572C73.7336 112.602 73.8923 112.7 74.0865 112.791C74.2803 112.882 74.439 112.932 74.439 112.903C74.439 112.874 74.2803 112.775 74.0865 112.685C73.8923 112.593 73.7336 112.543 73.7336 112.572ZM74.5565 112.999C74.5565 113.028 74.7152 113.126 74.9094 113.217C75.1032 113.308 75.2619 113.358 75.2619 113.329C75.2619 113.3 75.1032 113.202 74.9094 113.111C74.7152 113.02 74.5565 112.969 74.5565 112.999ZM76.2023 113.851C76.2023 113.88 76.361 113.979 76.5548 114.07C76.749 114.161 76.9077 114.211 76.9077 114.182C76.9077 114.152 76.749 114.054 76.5548 113.963C76.361 113.872 76.2023 113.822 76.2023 113.851ZM87.1345 119.499C87.1345 119.528 87.2932 119.626 87.4871 119.717C87.6809 119.808 87.8396 119.859 87.8396 119.829C87.8396 119.8 87.6809 119.701 87.4871 119.611C87.2932 119.52 87.1345 119.469 87.1345 119.499ZM88.78 120.351C88.78 120.38 88.939 120.479 89.1328 120.57C89.3267 120.66 89.4853 120.711 89.4853 120.682C89.4853 120.652 89.3267 120.554 89.1328 120.463C88.939 120.372 88.78 120.322 88.78 120.351ZM96.421 124.294C96.421 124.323 96.5797 124.421 96.7735 124.512C96.9673 124.603 97.126 124.654 97.126 124.624C97.126 124.595 96.9673 124.497 96.7735 124.406C96.5797 124.315 96.421 124.264 96.421 124.294ZM114.259 126.012C113.82 126.228 113.846 126.318 114.288 126.111C114.482 126.02 114.641 125.923 114.641 125.895C114.641 125.826 114.629 125.83 114.259 126.012ZM99.7122 125.999C99.7122 126.028 99.8709 126.126 100.065 126.217C100.259 126.308 100.418 126.359 100.418 126.329C100.418 126.3 100.259 126.202 100.065 126.111C99.8709 126.02 99.7122 125.969 99.7122 125.999ZM113.436 126.438C112.997 126.654 113.024 126.744 113.466 126.537C113.659 126.446 113.818 126.349 113.818 126.321C113.818 126.252 113.806 126.256 113.436 126.438ZM112.613 126.864C112.174 127.08 112.201 127.17 112.643 126.963C112.837 126.872 112.995 126.775 112.995 126.747C112.995 126.679 112.983 126.683 112.613 126.864ZM101.358 126.851C101.358 126.88 101.517 126.979 101.71 127.07C101.905 127.161 102.063 127.211 102.063 127.182C102.063 127.153 101.905 127.054 101.71 126.963C101.517 126.872 101.358 126.822 101.358 126.851Z" fill="#0C8CD7"/>
</g>
</g>
<defs>
<clipPath id="clip0_9513_4985">
<rect width="142" height="130" fill="white" transform="translate(0.5)"/>
</clipPath>
</defs>
</svg>
