<svg xmlns="http://www.w3.org/2000/svg" width="20" height="25" viewBox="0 0 20 25" fill="none">
  <path d="M17.5 5H15C15 2.2375 12.7625 0 10 0C7.2375 0 5 2.2375 5 5H2.5C1.125 5 0 6.125 0 7.5V22.5C0 23.875 1.125 25 2.5 25H17.5C18.875 25 20 23.875 20 22.5V7.5C20 6.125 18.875 5 17.5 5ZM10 2.5C11.375 2.5 12.5 3.625 12.5 5H7.5C7.5 3.625 8.625 2.5 10 2.5ZM17.5 22.5H2.5V7.5H5V10C5 10.6875 5.5625 11.25 6.25 11.25C6.9375 11.25 7.5 10.6875 7.5 10V7.5H12.5V10C12.5 10.6875 13.0625 11.25 13.75 11.25C14.4375 11.25 15 10.6875 15 10V7.5H17.5V22.5Z" fill="white"/>
</svg>